<svg width="1189" height="1189" viewBox="0 0 1189 1189" fill="none" xmlns="http://www.w3.org/2000/svg">
<path d="M610.007 522.893C610.007 528.538 610.007 528.538 604.729 529.024L602.677 529.21L601.442 529.036C598.541 528.633 596.958 528.006 592.974 523.314C589.685 519.362 581.603 509.501 574.679 499.896C578.898 495.532 583.103 491.213 587.15 487.39C591.77 483.093 594.291 482.224 600.005 481.617L602.262 481.393V481.401L604.729 481.625C610.007 482.112 610.007 482.112 610.007 487.756V522.893ZM631.078 481.625L633.543 481.401V473.337H602.434H602.262H574.21V481.26C574.21 481.26 578.619 481.914 578.726 481.932C578.669 482.01 578.609 482.085 578.546 482.157C575.067 486.754 570.486 491.888 565.307 496.981C564.567 497.69 563.879 498.308 563.245 498.82V487.934C563.245 482.101 563.245 482.101 568.174 481.625L570.633 481.393V473.337H539.794V481.401L542.259 481.625C547.546 482.112 547.546 482.112 547.546 487.934V522.705C547.546 528.548 547.546 528.548 542.523 529.024L540.065 529.257V537.312H571.169V529.24L568.698 529.024C563.245 528.538 563.245 528.538 563.245 522.705V511.036C570.593 521.053 577.726 530.474 582.371 536.297L583.185 537.312H602.262H603.783H633.543V529.249L631.078 529.024C625.885 528.548 625.885 528.548 625.885 522.893V487.756C625.885 482.101 625.885 482.101 631.078 481.625Z" fill="#A7A9AC"/>
<path d="M747.039 507.951C747.039 507.951 750.052 499.689 750.799 497.651L754.383 507.951H747.039ZM666.317 501.913C664.828 503.165 662.528 503.707 658.869 503.707H658.52V484.364C658.52 483.428 658.563 482.941 658.497 482.812C658.82 482.717 659.557 482.568 661.028 482.568C663.679 482.568 669.845 483.595 669.845 493.089C669.845 497.108 668.729 499.913 666.317 501.913ZM783.817 529.5C779.465 529.035 778.905 528.959 776.143 521.593C772.112 510.923 768.167 499.913 764.241 488.98L758.093 471.897L750.416 473.991L731.351 521.837C728.565 528.881 728.083 528.939 723.445 529.517L722.927 529.575L722.12 529.5C716.927 529.035 716.927 529.035 716.927 523.368V488.231C716.927 482.588 716.927 482.588 722.12 482.1L724.585 481.876V473.804H693.301V481.876L695.768 482.1C701.049 482.588 701.049 482.588 701.049 488.231V523.368C701.049 529.015 701.049 529.015 695.768 529.5L693.435 529.704C692.115 529.369 690.836 529.312 689.023 527.351C687.143 525.389 685.293 522.7 682.312 518.099C680.369 515.129 677.864 510.977 676.14 507.932C684.577 503.408 686.448 496.756 686.448 491.744C686.448 485.707 683.877 480.661 679.241 477.54C674.787 474.439 669.205 473.804 662.203 473.804H635.344V481.876L637.801 482.1C642.82 482.588 642.82 482.588 642.82 488.14V523.368C642.82 529.015 642.82 529.015 637.445 529.5L634.979 529.723V537.799H666.265V529.723L663.799 529.5C658.52 529.015 658.52 529.015 658.52 523.368V512.491C660.52 512.588 661.192 513.203 662.181 514.884L664.281 518.641C666.257 522.192 668.257 525.78 670.221 528.752C674.875 535.687 679.552 537.239 689.588 537.705L693.301 537.779V537.799H721.067H724.585H746.411V529.8L744.028 529.517C741.487 529.201 740.517 528.901 740.263 528.901C740.205 528.901 740.181 528.901 740.181 528.939C740.153 528.752 740.187 528.155 740.793 526.209C741.669 523.313 742.659 520.473 743.617 517.8H757.755C759.117 521.463 760.364 524.94 761.229 527.52C761.495 528.264 761.607 528.715 761.711 528.847C761.344 528.996 760.523 529.239 758.7 529.517L756.388 529.875V537.799H786.232V529.78L783.817 529.5Z" fill="#A7A9AC"/>
<path d="M584.5 535.098C579.552 528.847 572.068 518.922 565.109 509.464C563.148 506.868 561.961 506.419 560.53 506.606V523.183C560.53 530.911 561.325 531.56 568.461 532.182V535.098H542.765V532.182C549.437 531.56 550.254 530.911 550.254 523.183V488.372C550.254 480.54 549.437 480.008 542.508 479.364V476.467H567.926V479.364C561.262 480.008 560.53 480.54 560.53 488.372V503.878C562.414 503.363 564.497 501.96 567.21 499.383C572.885 493.803 577.38 488.662 580.71 484.243C583.081 481.347 582.874 480.187 578.729 479.654L576.926 479.364V476.467H599.734V479.364C593.7 480.008 590.544 481.018 585.305 485.887C580.71 490.195 575.956 495.158 571.174 500.083C577.268 508.736 585.133 518.604 590.888 525.492C595.044 530.406 597.21 531.63 601.093 532.182V535.098H584.5Z" fill="#002659"/>
<path d="M604.971 535.098V532.182C611.916 531.56 612.719 531.014 612.719 523.36V488.186C612.719 480.54 611.916 480.008 604.971 479.364V476.467H630.848V479.364C623.905 480.008 623.171 480.54 623.171 488.186V523.36C623.171 531.014 623.905 531.56 630.848 532.182V535.098H604.971Z" fill="#002659"/>
<path d="M658.879 506.419C662.918 506.419 665.887 505.793 668.07 503.97C671.215 501.363 672.565 497.737 672.565 493.065C672.565 483.327 666.71 479.859 661.015 479.859C658.59 479.859 657.229 480.187 656.631 480.721C655.978 481.273 655.817 482.27 655.817 484.307V506.419H658.879ZM692.393 535.867C691.669 535.867 690.671 535.771 689.606 535.771C679.871 535.359 676.351 533.023 672.475 527.239C669.851 523.269 667.147 518.119 664.533 513.521C663.022 510.942 661.483 509.763 657.879 509.763H655.817V523.361C655.817 530.838 656.631 531.559 663.565 532.182V535.098H637.666V532.182C644.625 531.559 645.53 530.838 645.53 523.361V488.122C645.53 480.721 644.713 480.007 638.049 479.365V476.467H662.205C669.674 476.467 674.205 477.307 677.71 479.711C681.286 482.158 683.746 486.119 683.746 491.745C683.746 499.559 678.686 504.082 672.382 506.719C673.846 509.465 677.341 515.426 680.051 519.529C683.21 524.446 685.082 527.146 687.079 529.193C689.142 531.493 690.866 532.519 692.947 533.146L692.393 535.867Z" fill="#002659"/>
<path d="M696.002 535.098V532.182C702.942 531.56 703.747 531.014 703.747 523.36V488.186C703.747 480.54 702.942 480.008 696.002 479.364V476.467H721.887V479.364C714.931 480.008 714.202 480.54 714.202 488.186V523.36C714.202 531.014 714.931 531.56 721.887 532.182V535.098H696.002Z" fill="#002659"/>
<path d="M751.007 489.906H750.807C748.098 496.859 745.663 503.878 743.153 510.66H758.201L751.007 489.906ZM759.135 535.098V532.182C764.513 531.379 765.138 530.406 763.783 526.596C762.789 523.631 761.262 519.379 759.635 515.054H741.701C740.543 518.343 739.275 521.791 738.205 525.446C736.663 530.275 737.122 531.379 743.687 532.182V535.098H723.775V532.182C729.638 531.491 730.814 530.556 733.846 522.802L752.439 476.212L756.401 475.148C762.083 490.84 767.765 507.026 773.619 522.566C776.583 530.474 777.759 531.559 783.531 532.182V535.098H759.135Z" fill="#002659"/>
<path d="M555.871 379.369C547.325 373.874 538.418 368.921 529.145 364.785C525.035 362.958 520.85 361.29 516.562 359.933C512.585 358.674 508.51 357.678 504.374 357.172C500.691 356.721 496.965 356.648 493.298 357.213C490.997 357.566 488.726 358.174 486.601 359.122C483.619 360.454 480.926 362.46 478.841 364.95C475.819 368.557 474.049 373.178 473.459 377.865C472.947 381.954 473.33 386.089 474.21 390.112C474.947 393.505 476.038 396.812 477.343 400.033C479.754 405.989 482.879 411.628 486.429 416.984C476.606 408.517 467.611 399.121 459.366 389.085C449.978 377.637 441.565 365.352 435.814 351.678C433.674 346.582 431.898 341.288 431.598 335.776C431.327 330.76 432.281 325.562 435.393 321.526C437.338 319.176 439.991 317.581 442.835 316.598C445.686 315.618 448.729 315.249 451.746 315.203C459.999 315.08 468.059 317.358 475.835 320.216C495.65 327.496 513.569 338.53 530.653 350.877C549.83 364.73 567.95 380.233 582.355 398.905C573.926 391.874 565.109 385.304 555.871 379.369ZM587.065 398.374C573.119 379.762 555.507 364.222 536.801 350.321C520.505 338.209 503.385 327.345 484.713 319.347C478.189 316.552 471.478 314.106 464.577 312.576C459.899 311.538 455.145 310.921 450.335 311.173C443.565 311.525 436.691 313.604 432.249 318.949C428.551 323.777 427.243 330.009 427.551 336.022C427.855 341.99 429.754 347.741 432.074 353.27C437.973 367.304 446.587 379.916 456.223 391.658C465.035 402.397 474.699 412.404 485.29 421.366C486.699 422.564 488.017 424.628 489.778 422.46C491.347 420.514 489.965 419.218 489.126 417.601C486.502 412.536 484.223 407.313 482.273 401.948C480.645 397.462 479.254 392.882 478.447 388.177C477.723 383.957 477.465 379.646 478.519 375.486C479.301 372.402 480.809 369.408 482.997 367.137C485.907 364.114 490.019 362.381 494.189 361.692C499.666 360.797 505.238 361.708 510.645 363.081C520.079 365.481 529.007 369.288 537.666 373.614C553.623 381.589 568.661 391.341 583.019 401.94C584.571 403.088 585.767 404.804 587.921 403.164C590.233 401.4 588.233 399.934 587.065 398.374Z" fill="#A7A9AC"/>
<path d="M487.392 418.889C488.15 419.659 489.254 418.743 488.647 417.855C482.586 409.004 477.671 399.364 475.606 390.128C473.624 381.389 474.288 373.208 479.283 366.667C490.384 351.624 515.931 358.544 540.564 371.896C555.903 380.197 571.254 391.257 583.343 401.505C584.163 402.205 585.202 401.112 584.46 400.327C581.968 397.679 579.436 395.047 576.851 392.44C569.395 384.891 561.572 377.9 553.376 371.019C537.712 357.584 519.77 344.631 501.556 334.257C486.66 325.987 468.512 317.809 453.57 317.097C446.671 316.817 440.674 318.267 436.868 322.725C434.692 325.547 433.59 328.847 433.42 332.601C433.215 339.939 436.122 348.648 440.316 357.32C447.215 371.255 456.859 384.891 467.57 397.401C474.087 405.009 480.83 412.237 487.392 418.889Z" fill="#003974"/>
<path d="M709.66 613.234C709.436 616.065 708.848 618.889 707.829 621.55C706.805 624.206 705.357 626.692 703.428 628.784C701.8 630.561 699.835 632.056 697.676 633.085C695.512 634.121 693.155 634.702 690.783 635.064C685.165 635.905 679.447 635.524 673.868 634.465C668.288 633.421 662.845 631.692 657.551 629.662C644.655 624.709 632.603 617.926 621.269 609.984C613.524 604.541 606.116 598.581 598.993 592.405C595.316 589.217 591.715 585.965 588.267 582.562C587.501 581.796 588.387 580.714 589.285 581.302C596.633 586.134 604.303 590.441 612.228 594.358C623.9 600.132 636.136 605.048 649.075 606.393C655.897 607.085 662.915 606.794 669.069 603.72C672.191 602.152 675.081 599.872 677.152 597.088C679.207 594.32 680.441 591.048 681.259 587.713C684.176 575.824 681.764 563.116 676.759 551.892H681.4C688.355 559.966 694.469 568.769 699.559 578.152C702.095 582.834 704.376 587.656 706.193 592.657C707.389 595.954 708.389 599.329 709.024 602.769C709.66 606.216 709.936 609.741 709.66 613.234ZM712.783 604.132C711.761 596.786 709.165 589.778 706.009 583.048C700.441 571.181 693.133 560.228 684.647 550.266H673.687C673.84 550.632 673.988 551.013 674.144 551.388C676.428 556.977 677.671 562.91 678.504 568.918C679.311 574.798 679.731 580.749 678.1 586.45C676.509 592.022 672.963 597.366 668.133 600.228C663.223 603.16 656.98 603.525 651.009 603.058C638.884 602.105 627.86 597.704 616.975 592.832C605.983 587.908 595.133 582.508 585.116 575.834C583.303 574.618 581.803 572.685 579.572 574.844C577.239 577.105 579.54 578.516 581.037 580.142C588.355 588.113 596.48 595.29 604.952 602.057C617.111 611.777 629.972 620.654 643.884 627.569C653.392 632.281 663.4 636.076 673.905 638C680.873 639.28 688.059 639.736 694.821 637.784C698.395 636.757 701.848 635.054 704.624 632.59C707.556 629.97 709.731 626.493 711.132 622.794C713.379 616.878 713.655 610.373 712.783 604.132Z" fill="#A7A9AC"/>
<path d="M584.669 576.506C583.786 575.882 582.857 577.011 583.636 577.759C585.309 579.35 586.997 580.918 588.7 582.47C591.362 584.899 594.057 587.271 596.792 589.618C599.524 591.964 602.289 594.262 605.101 596.506C607.912 598.751 610.76 600.954 613.658 603.084C616.549 605.224 619.489 607.3 622.476 609.311C625.456 611.327 628.489 613.271 631.56 615.14C634.638 617.008 637.754 618.803 640.926 620.504C644.096 622.206 647.32 623.812 650.598 625.29C653.874 626.774 657.205 628.128 660.598 629.344C663.986 630.56 667.429 631.626 670.934 632.43C674.44 633.232 678.01 633.774 681.601 634.008C685.2 634.232 688.82 634.148 692.341 633.334C695.86 632.522 699.27 630.99 701.909 628.596C704.549 626.214 706.42 622.962 707.426 619.514C708.432 616.058 708.578 612.392 708.314 608.795C708.054 605.196 707.38 601.654 706.426 598.188C705.472 594.722 704.232 591.328 702.83 588.022C701.421 584.711 699.854 581.46 698.19 578.284C696.521 575.087 694.765 571.946 692.896 568.872C691.03 565.798 689.065 562.779 687.024 559.816C684.981 556.854 682.864 553.947 680.696 551.07H674.898C677 555.556 678.641 560.294 679.729 565.144C680.906 570.367 681.445 575.711 680.994 581.238C680.552 586.758 679.12 592.459 675.729 596.692C672.341 600.918 666.992 603.683 661.546 604.803C656.104 605.935 650.568 605.43 645.197 604.45C639.825 603.476 634.62 602.03 629.536 600.263C624.45 598.487 619.489 596.384 614.638 594.086C609.789 591.778 605.052 589.274 600.417 586.599C595.786 583.926 591.262 581.068 586.864 578.039C586.128 577.534 585.398 577.022 584.669 576.506Z" fill="#004A90"/>
<path d="M655.299 455.487H654.307C650.132 436.859 644.137 421.448 636.001 408.419C632.031 402.069 628.247 397.469 624.091 393.948C620.309 390.736 616.369 388.571 612.384 387.517C610.397 386.997 608.38 386.732 606.384 386.732C605.293 386.732 604.215 386.812 603.173 386.972C600.421 387.399 597.616 388.428 594.66 390.103C596.427 385.036 598.941 380.328 602.165 376.075C604.017 373.62 605.845 371.685 607.755 370.16C609.533 368.735 611.447 367.601 613.447 366.792C615.059 366.143 616.616 365.755 618.085 365.64C618.389 365.617 618.711 365.607 619.028 365.607C620.255 365.607 621.501 365.773 622.733 366.099C625.861 366.923 628.965 368.82 631.965 371.735C634.577 374.267 636.935 377.383 639.171 381.263C641.673 385.6 643.804 390.483 645.88 396.629C647.465 401.337 648.848 406.248 650.105 411.645C651.604 418.028 652.832 424.729 653.763 431.559C654.979 440.491 655.484 448.344 655.299 455.487ZM659.327 431.236C657.859 420.208 655.627 409.304 652.369 398.673C650.637 393.023 648.619 387.455 645.979 382.177C644.4 379.031 642.601 375.981 640.507 373.143C637.723 369.356 634.421 365.937 630.413 363.479C627.471 361.675 624.148 360.391 620.741 360.115C616.916 359.799 612.979 360.749 609.512 362.457C604.263 365.036 600.083 369.344 596.687 374.141C592.588 379.932 589.621 386.432 587.911 393.281C587.069 396.645 590.275 397.144 592.752 395.369C595.705 393.247 598.957 391.317 602.465 390.541C605.829 389.796 609.435 390.104 612.757 391.187C616.129 392.285 619.213 394.188 621.905 396.487C624.619 398.804 626.932 401.523 629.072 404.367C635.872 413.413 640.877 423.735 644.715 434.393C647.544 442.253 649.739 450.289 651.481 458.443C651.531 458.683 651.58 458.908 651.632 459.149H660.716C660.728 458.924 660.739 458.72 660.749 458.497C661.22 449.395 660.533 440.273 659.327 431.236Z" fill="#A7A9AC"/>
<path d="M657.5 458.326C657.366 456.104 657.205 453.869 657.021 451.637C656.844 449.412 656.636 447.188 656.409 444.964C656.18 442.74 655.926 440.518 655.656 438.292C655.38 436.076 655.081 433.861 654.757 431.646C654.434 429.432 654.085 427.229 653.716 425.021C653.349 422.817 652.95 420.61 652.526 418.424C652.096 416.229 651.628 414.03 651.12 411.864C650.614 409.677 650.062 407.518 649.478 405.353C648.893 403.2 648.273 401.05 647.604 398.916C646.934 396.785 646.213 394.666 645.45 392.568C644.685 390.462 643.874 388.374 642.942 386.346C642.002 384.314 640.937 382.346 639.778 380.429C638.62 378.522 637.366 376.674 636.002 374.893C634.642 373.112 633.172 371.404 631.497 369.937C629.814 368.469 627.934 367.243 625.885 366.298C623.844 365.353 621.638 364.688 619.418 364.618C617.205 364.549 614.976 365.077 612.912 365.946C610.841 366.81 608.934 368.017 607.194 369.417C605.458 370.825 603.888 372.426 602.434 374.132C600.986 375.833 599.658 377.637 598.445 379.516C597.229 381.393 596.128 383.341 595.117 385.336C594.109 387.332 593.193 389.374 592.27 391.41C591.869 392.294 591.473 393.184 591.07 394.07C590.63 395.036 591.748 395.744 592.434 394.925C595.524 391.268 600.524 388.449 605.549 388.108C610.578 387.768 615.63 389.898 619.844 392.712C624.06 395.528 627.432 399.018 630.366 402.808C633.302 406.601 635.797 410.696 637.994 414.901C640.185 419.106 642.081 423.422 643.762 427.806C645.44 432.197 646.904 436.666 648.169 441.17C649.44 445.673 650.51 450.225 651.361 454.814C651.581 455.982 651.797 457.158 652.01 458.326H657.5Z" fill="#005BAB"/>
<path d="M585.246 599.347C585.556 598.319 584.293 597.777 583.762 598.711C580.342 604.657 576.29 610.637 570.556 614.486C563.52 619.199 553.952 620.699 545.79 618.187C537.634 615.683 530.882 609.159 525.522 602.187C520.158 595.215 516.186 587.798 513.11 579.991C510.044 572.191 507.864 564.005 506.29 555.762C504.71 547.519 503.733 539.218 503.208 530.903C502.678 522.578 502.604 514.231 502.944 505.911C503.285 497.597 504.046 489.297 505.197 481.054C506.345 472.814 507.886 464.638 509.921 456.561C511.954 448.486 514.481 440.518 518.168 433.002C518.616 432.089 519.064 431.171 519.514 430.255C519.986 429.283 518.725 428.543 518.11 429.431C515.468 433.263 513.11 437.273 510.91 441.377C508.496 445.859 506.262 450.459 504.216 455.13C502.165 459.797 500.298 464.553 498.608 469.357C496.916 474.177 495.4 479.045 493.986 483.953C492.58 488.849 491.277 493.783 490.108 498.754C488.944 503.709 487.908 508.715 486.992 513.723C486.077 518.754 485.282 523.791 484.608 528.847C483.937 533.903 483.38 538.977 482.949 544.059C482.52 549.143 482.218 554.229 482.02 559.33C481.825 564.434 481.736 569.538 481.76 574.631C481.788 579.73 481.921 584.833 482.2 589.929C482.473 595.021 482.889 600.105 483.468 605.178C484.049 610.243 484.785 615.289 485.725 620.309C486.665 625.327 487.801 630.298 489.173 635.214C490.553 640.13 492.165 644.971 494.085 649.699C496.006 654.429 498.233 659.025 500.968 663.342C503.702 667.653 506.937 671.661 510.994 674.811C515.056 677.95 519.941 680.219 524.94 680.557C529.934 680.894 535.046 679.295 539.533 676.801C544.017 674.298 547.877 670.913 551.382 667.194C554.889 663.491 558.044 659.473 560.913 655.25C563.777 651.025 566.353 646.615 568.716 642.093C571.074 637.569 573.23 632.943 575.216 628.243C577.202 623.55 579.025 618.775 580.692 613.962C582.361 609.142 583.869 604.262 585.246 599.347Z" fill="#002659"/>
<path d="M572.437 640.839C569.65 647.503 566.415 653.978 562.489 660.034C558.59 666.034 554.015 671.613 548.461 676.137C544.147 679.642 539.237 682.518 533.898 684.014C530.565 684.949 527.059 685.362 523.622 685.014C519.721 684.613 515.898 683.257 512.478 681.313C506.297 677.809 501.403 672.407 497.478 666.465C493.51 660.457 490.535 653.895 488.109 647.139C485.669 640.334 483.791 633.345 482.286 626.279C479.265 612.094 477.742 597.627 477.243 583.143C476.395 558.265 478.554 533.295 484.161 509.062C487.431 494.942 491.871 481.074 497.603 467.747C503.309 454.497 510.301 441.77 518.691 430.021C518.265 430.89 517.841 431.759 517.415 432.627C511.65 444.382 508.475 457.261 506.139 470.158C504.981 476.579 504.027 483.007 503.322 489.477C502.057 501.166 501.603 512.978 502.043 524.755C502.481 536.529 503.814 548.265 506.281 559.799C507.663 566.263 509.403 572.677 511.739 578.842C514.577 586.321 518.303 593.459 522.901 600.047C526.906 605.793 531.57 611.121 537.406 614.973C540.27 616.861 543.418 618.391 546.726 619.29C550.077 620.215 553.59 620.487 557.054 620.142C563.431 619.493 569.622 616.729 574.403 612.515C578.577 608.823 581.679 604.021 584.467 599.161C581.827 613.438 578.033 627.494 572.437 640.839ZM583.327 598.385C580.525 602.217 577.527 606.018 573.851 609.047C570.174 612.066 565.819 614.299 561.166 615.422C556.513 616.525 551.559 616.525 547.035 615.149C542.513 613.775 538.423 611.057 534.882 607.823C531.346 604.589 528.355 600.863 525.682 596.909C523.005 592.954 520.639 588.806 518.606 584.487C516.57 580.17 514.869 575.702 513.445 571.162C512.018 566.599 510.869 561.965 509.915 557.294C508.963 552.622 508.205 547.911 507.617 543.182C507.027 538.445 506.611 533.687 506.346 528.929C506.085 524.163 505.967 519.399 505.983 514.622C506.002 509.859 506.15 505.09 506.398 500.325C506.645 495.559 506.991 490.811 507.45 486.065C507.903 481.317 508.463 476.57 509.131 471.851C509.798 467.131 510.57 462.422 511.557 457.749C512.541 453.093 513.739 448.469 515.153 443.917C516.575 439.357 518.205 434.87 520.013 430.461C520.77 428.609 522.163 426.955 519.906 425.302C517.505 423.526 516.634 425.901 515.467 427.543C505.874 440.947 498.079 455.607 491.898 470.898C484.243 489.822 479.067 509.705 476.077 529.893C472.822 551.91 472.166 574.303 473.958 596.478C474.595 604.373 475.543 612.245 476.913 620.038C478.721 630.317 481.265 640.485 484.945 650.269C487.931 658.183 491.663 665.867 496.838 672.558C499.855 676.465 503.369 680.034 507.426 682.874C512.163 686.201 517.653 688.537 523.355 689.061C528.237 689.509 533.278 688.631 537.937 686.913C544.065 684.649 549.525 680.913 554.259 676.474C560.226 670.874 565.033 664.129 569.085 656.987C571.749 652.297 574.079 647.419 576.169 642.465C581.893 628.841 585.773 614.478 588.447 599.943C589.406 594.731 586.298 594.319 583.327 598.385Z" fill="#A7A9AC"/>
<path d="M268.473 757.366V800.566H256.52V717.527H268.473V746.723H278.075V757.366H268.473ZM233.667 747.919C231.252 745.205 228.315 743.846 224.905 743.846C221.487 743.846 218.588 745.205 216.151 747.919C213.731 750.593 212.531 753.825 212.531 757.609C212.531 761.415 213.731 764.671 216.151 767.346C218.588 770.022 221.487 771.355 224.905 771.355C228.315 771.355 231.252 770.022 233.667 767.346C236.096 764.671 237.304 761.415 237.304 757.609C237.304 753.825 236.096 750.593 233.667 747.919ZM206.107 824.527V786.579H218.077V813.867H271.02V824.527H206.107ZM198 733.434V722.757H218.924V715.385H230.885V722.757H251.607V733.434H230.241C235.643 734.675 240.189 737.509 243.799 741.946C247.427 746.353 249.241 751.514 249.241 757.513C249.241 764.277 246.883 770.062 242.101 774.859C237.32 779.655 231.588 782.066 224.905 782.066C218.213 782.066 212.484 779.655 207.725 774.859C202.945 770.062 200.585 764.277 200.585 757.513C200.585 751.514 202.408 746.353 206.067 741.946C209.736 737.509 214.315 734.675 219.779 733.434H198Z" fill="#636466"/>
<path d="M332.947 766.157V784.652H358.153V824.526H346.182V795.324H293.035V784.652H321.01V766.157H288.538V755.488H346.182V728.217H293.239V717.526H358.153V755.488H365.401V766.157H332.947Z" fill="#636466"/>
<path d="M378.215 810.77V800.076H410.66V782.527H385.466V744.595H435.838V728.218H385.466V717.527H447.83V755.259H397.418V771.863H450.579V782.527H422.608V800.076H455.072V810.77H378.215Z" fill="#636466"/>
<path d="M525.533 738.886H487.106V752.164H525.533V738.886ZM527.465 824.526L506.306 797.488L485.176 824.526H471.088L499.889 787.021H512.73L541.549 824.526H527.465ZM467.895 781.332V770.67H500.34V762.849H475.134V717.526H487.105V728.217H525.533V717.526H537.493V762.849H512.296L512.504 770.67H544.749V781.332H467.895Z" fill="#636466"/>
<path d="M627.156 752.66V801.032H615.186V717.526H627.156V741.962H636.749V752.66H627.156ZM564.836 824.526V784.205H576.784V813.866H629.51V824.526H564.836ZM598.338 776.373L582.12 733.681L566.112 776.373H553.497L575.697 717.526H588.732L610.948 776.373H598.338Z" fill="#636466"/>
<path d="M707.252 797.488H666.455V813.866H707.252V797.488ZM680.632 731.514C678.012 728.526 674.83 727.001 671.146 727.001C667.583 727.001 664.447 728.526 661.747 731.514C659.039 734.509 657.708 738.116 657.708 742.324C657.708 746.516 659.039 750.178 661.747 753.253C664.447 756.33 667.583 757.85 671.146 757.85C674.83 757.85 678.012 756.33 680.632 753.253C683.255 750.178 684.583 746.516 684.583 742.324C684.583 738.116 683.255 734.509 680.632 731.514ZM654.499 824.526V776.373H666.455V786.786H707.252V776.373H719.173V824.526H654.499ZM707.252 768.546V748.605H696.369C695.088 754.206 692.16 758.93 687.542 762.75C682.932 766.616 677.531 768.546 671.265 768.546C664.301 768.546 658.338 765.966 653.283 760.81C648.252 755.69 645.755 749.492 645.755 742.324C645.755 735.001 648.252 728.821 653.283 723.849C658.338 718.87 664.301 716.337 671.265 716.337C677.531 716.337 683.012 718.394 687.768 722.517C692.507 726.645 695.457 731.755 696.569 737.938H707.252V716.337H719.173V768.546H707.252Z" fill="#636466"/>
<path d="M796.913 717.526H808.861V800.301H796.913V717.526ZM744.156 824.526V784.205H756.108V813.866H811.405V824.526H744.156ZM777.911 776.13L762.301 742.712L746.734 776.13H734.116L756.348 728.217H737.309V717.526H787.499V728.217H768.492L790.465 776.13H777.911Z" fill="#636466"/>
<path d="M872.887 733.846C870.721 731.359 868.122 730.102 865.111 730.102C861.955 730.102 859.306 731.359 857.137 733.846C854.986 736.314 853.903 739.334 853.903 742.793C853.903 746.274 854.986 749.249 857.137 751.757C859.306 754.254 861.955 755.487 865.111 755.487C868.122 755.487 870.721 754.254 872.887 751.757C875.023 749.249 876.103 746.274 876.103 742.793C876.103 739.334 875.023 736.314 872.887 733.846ZM873.718 795.181C871.275 792.43 868.294 791.054 864.803 791.054C861.281 791.054 858.363 792.43 855.973 795.181C853.598 797.955 852.421 801.194 852.421 804.943C852.421 808.89 853.598 812.185 855.973 814.814C858.363 817.493 861.281 818.823 864.803 818.823C868.294 818.823 871.275 817.493 873.718 814.814C876.169 812.185 877.385 808.89 877.385 804.943C877.385 801.194 876.169 797.955 873.718 795.181ZM882.147 822.285C877.357 827.085 871.606 829.521 864.901 829.521C858.335 829.521 852.606 827.085 847.747 822.285C842.861 817.43 840.429 811.617 840.429 804.837C840.429 798.015 842.861 792.29 847.747 787.527C852.606 782.773 858.335 780.405 864.901 780.405C871.606 780.405 877.357 782.773 882.147 787.527C886.955 792.29 889.341 798.015 889.341 804.837C889.341 811.617 886.955 817.43 882.147 822.285ZM832.997 730.102V719.43H859.242V714.45H871.205V719.43H897.885V730.102H884.021C885.302 731.942 886.278 733.989 886.986 736.235C887.729 738.446 888.067 740.826 888.067 743.277C888.067 749.615 885.854 754.985 881.393 759.471C876.895 763.949 871.486 766.157 865.111 766.157C858.726 766.157 853.267 763.949 848.747 759.471C844.215 754.985 841.958 749.615 841.958 743.277C841.958 740.826 842.322 738.446 843.095 736.235C843.861 733.989 844.861 731.942 846.127 730.102H832.997ZM826.578 768.781H903.425V779.453H826.578V768.781Z" fill="#636466"/>
<path d="M976.247 801.033V792.977H957.455V782.311H976.247V717.527H988.184V801.033H976.247ZM950.957 731.194C948.599 728.561 945.72 727.241 942.293 727.241C938.885 727.241 935.999 728.561 933.653 731.194C931.307 733.803 930.129 736.898 930.129 740.418C930.129 744.13 931.307 747.29 933.653 749.902C935.999 752.534 938.885 753.825 942.293 753.825C945.72 753.825 948.599 752.534 950.957 749.902C953.299 747.29 954.457 744.13 954.457 740.418C954.457 736.898 953.299 733.803 950.957 731.194ZM921.389 824.527V792.734H933.328V813.867H990.556V824.527H921.389ZM959.383 757.366C954.684 762.139 948.999 764.493 942.293 764.493C935.757 764.493 930.083 762.139 925.332 757.366C920.544 752.661 918.168 747.03 918.168 740.418C918.168 733.846 920.544 728.218 925.332 723.587C930.083 718.906 935.757 716.579 942.293 716.579C948.999 716.579 954.684 718.906 959.383 723.587C964.091 728.218 966.435 733.846 966.435 740.418C966.435 747.03 964.091 752.661 959.383 757.366ZM949.564 776.374V800.811H937.601V776.374H913.895V765.713H971.547V776.374H949.564Z" fill="#636466"/>
<path d="M212.106 877.778L205.913 864.965L202.47 869.809V877.778H198.377V850.474H202.47V863.13L211.226 850.474H216.246L208.645 861.277L216.901 877.778H212.106Z" fill="#636466"/>
<path d="M226.161 854.545C224.874 854.545 223.863 855.048 223.051 856.064C222.415 856.855 222.027 858.113 221.877 859.813C221.809 860.431 221.775 861.877 221.775 864.131C221.775 866.379 221.809 867.816 221.877 868.431C222.027 870.136 222.415 871.399 223.046 872.185C223.863 873.211 224.874 873.704 226.161 873.704C227.442 873.704 228.453 873.211 229.265 872.185C229.903 871.399 230.297 870.136 230.442 868.436C230.502 867.816 230.541 866.379 230.541 864.131C230.541 861.877 230.502 860.431 230.442 859.821C230.297 858.113 229.903 856.855 229.265 856.064C228.453 855.048 227.442 854.545 226.161 854.545ZM226.161 878C223.713 878 221.625 877.004 219.955 875.04C218.909 873.8 218.221 872.264 217.942 870.467C217.765 869.343 217.691 867.264 217.691 864.131C217.691 860.983 217.765 858.915 217.942 857.793C218.221 855.988 218.909 854.452 219.955 853.217C221.625 851.248 223.713 850.253 226.161 850.253C228.63 850.253 230.734 851.248 232.385 853.217C233.442 854.452 234.111 855.988 234.369 857.793C234.535 858.879 234.627 861.012 234.627 864.131C234.627 867.251 234.535 869.376 234.369 870.467C234.111 872.259 233.442 873.8 232.385 875.04C230.734 877.004 228.63 878 226.161 878Z" fill="#636466"/>
<path d="M247.122 862.482C248.203 862.482 249.034 862.154 249.679 861.474C250.322 860.805 250.63 859.854 250.63 858.638C250.63 857.436 250.322 856.476 249.679 855.788C249.034 855.105 248.203 854.776 247.122 854.776H242.356V862.482H247.122ZM250.876 877.778L246.095 866.556H242.356V877.778H238.255V850.474H247.364C249.588 850.474 251.384 851.244 252.723 852.749C254.043 854.256 254.731 856.222 254.731 858.589C254.731 860.469 254.294 862.068 253.427 863.36C252.611 864.541 251.58 865.38 250.338 865.854L255.6 877.778H250.876Z" fill="#636466"/>
<path d="M258.294 877.778V850.474H273.433V854.776H262.395V861.885H271.807V866.138H262.395V873.484H273.433V877.778H258.294Z" fill="#636466"/>
<path d="M287.057 868.357L284.065 858.02L280.986 868.357H287.057ZM289.754 877.777L288.208 872.433H279.768L278.213 877.777H273.852L282.364 850.475H285.622L294.12 877.777H289.754Z" fill="#636466"/>
<path d="M302.591 850.474H306.684V877.778H302.591V850.474Z" fill="#636466"/>
<path d="M325.177 877.778L315.245 859.977V877.778H311.141V850.474H314.825L324.758 868.238V850.474H328.87V877.778H325.177Z" fill="#636466"/>
<path d="M339.692 878C336.22 878 333.455 876.783 331.414 874.368L331.236 874.151L333.955 870.983L334.22 871.28C335.583 872.893 337.438 873.704 339.758 873.704C341.143 873.704 342.234 873.372 342.982 872.728C343.734 872.075 344.086 871.171 344.086 869.968C344.086 868.855 343.82 868.001 343.296 867.417C342.831 866.931 342.054 866.584 340.992 866.4L338.332 865.957C336.387 865.613 334.89 864.864 333.835 863.715C332.687 862.444 332.108 860.644 332.108 858.403C332.108 855.976 332.82 854.003 334.231 852.507C335.648 851.008 337.58 850.253 340.01 850.253C342.938 850.253 345.37 851.311 347.278 853.389L347.482 853.612L344.843 856.668L344.596 856.379C343.435 855.089 341.854 854.433 339.911 854.433C338.703 854.433 337.783 854.784 337.107 855.497C336.438 856.201 336.104 857.109 336.104 858.255C336.104 859.223 336.356 859.959 336.898 860.513C337.422 861.072 338.211 861.447 339.234 861.632L341.815 862.075C343.742 862.417 345.219 863.111 346.223 864.163C347.512 865.483 348.166 867.403 348.166 869.855C348.166 872.356 347.37 874.361 345.788 875.817C344.25 877.269 342.168 878 339.692 878Z" fill="#636466"/>
<path d="M355.509 877.778V854.776H349.277V850.474H365.845V854.776H359.603V877.778H355.509Z" fill="#636466"/>
<path d="M368.296 850.474H372.38V877.778H368.296V850.474Z" fill="#636466"/>
<path d="M381.072 877.778V854.776H374.856V850.474H391.411V854.776H385.166V877.778H381.072Z" fill="#636466"/>
<path d="M401.95 878C399.523 878 397.496 877.105 395.903 875.325C394.307 873.569 393.51 871.256 393.51 868.468V850.475H397.603V868.277C397.603 869.968 398.01 871.308 398.814 872.275C399.592 873.247 400.627 873.704 401.95 873.704C403.27 873.704 404.319 873.239 405.124 872.275C405.923 871.305 406.316 869.957 406.316 868.277V850.475H410.422V868.468C410.422 871.256 409.616 873.569 408.02 875.325C406.414 877.108 404.374 878 401.95 878Z" fill="#636466"/>
<path d="M418.772 877.778V854.776H412.524V850.474H429.087V854.776H422.866V877.778H418.772Z" fill="#636466"/>
<path d="M431.549 877.778V850.474H446.682V854.776H435.645V861.885H445.049V866.138H435.645V873.484H446.682V877.778H431.549Z" fill="#636466"/>
<path d="M456.754 877.778V850.474H471.893V854.776H460.858V862.222H470.267V866.517H460.858V877.778H456.754Z" fill="#636466"/>
<path d="M482.221 854.545C480.931 854.545 479.909 855.048 479.111 856.064C478.463 856.855 478.075 858.113 477.939 859.813C477.885 860.431 477.843 861.877 477.843 864.131C477.843 866.379 477.885 867.816 477.939 868.431C478.075 870.136 478.463 871.399 479.111 872.185C479.909 873.211 480.931 873.704 482.221 873.704C483.494 873.704 484.518 873.211 485.325 872.185C485.963 871.399 486.357 870.136 486.502 868.436C486.565 867.816 486.59 866.379 486.59 864.131C486.59 861.877 486.565 860.431 486.502 859.821C486.357 858.113 485.963 856.855 485.333 856.064C484.518 855.048 483.494 854.545 482.221 854.545ZM482.221 878C479.77 878 477.69 877.004 476.005 875.04C474.958 873.8 474.289 872.264 474.007 870.467C473.822 869.343 473.739 867.264 473.739 864.131C473.739 860.983 473.822 858.915 474.007 857.793C474.289 855.988 474.958 854.452 476.005 853.217C477.69 851.248 479.77 850.253 482.221 850.253C484.663 850.253 486.775 851.248 488.442 853.217C489.497 854.452 490.169 855.988 490.437 857.793C490.606 858.879 490.693 861.012 490.693 864.131C490.693 867.251 490.606 869.376 490.437 870.467C490.169 872.259 489.497 873.8 488.442 875.04C486.775 877.004 484.663 878 482.221 878Z" fill="#636466"/>
<path d="M503.16 862.482C504.244 862.482 505.087 862.154 505.718 861.474C506.363 860.805 506.694 859.854 506.694 858.638C506.694 857.436 506.363 856.476 505.718 855.788C505.087 855.105 504.244 854.776 503.16 854.776H498.415V862.482H503.16ZM506.926 877.778L502.16 866.556H498.415V877.778H494.327V850.474H503.428C505.63 850.474 507.434 851.244 508.78 852.749C510.119 854.256 510.78 856.222 510.78 858.589C510.78 860.469 510.338 862.068 509.467 863.36C508.66 864.541 507.636 865.38 506.395 865.854L511.674 877.778H506.926Z" fill="#636466"/>
<path d="M530.036 862.482C531.117 862.482 531.963 862.154 532.604 861.474C533.231 860.805 533.56 859.854 533.56 858.638C533.56 857.436 533.231 856.476 532.604 855.788C531.963 855.105 531.117 854.776 530.036 854.776H525.273V862.482H530.036ZM533.793 877.778L529.023 866.556H525.273V877.778H521.197V850.474H530.304C532.512 850.474 534.309 851.244 535.648 852.749C536.987 854.256 537.664 856.222 537.664 858.589C537.664 860.469 537.229 862.068 536.343 863.36C535.544 864.541 534.512 865.38 533.265 865.854L538.536 877.778H533.793Z" fill="#636466"/>
<path d="M548.859 854.545C547.577 854.545 546.577 855.048 545.763 856.064C545.127 856.855 544.733 858.113 544.585 859.813C544.525 860.431 544.499 861.877 544.499 864.131C544.499 866.379 544.525 867.816 544.585 868.431C544.733 870.136 545.127 871.399 545.755 872.185C546.577 873.211 547.577 873.704 548.859 873.704C550.148 873.704 551.164 873.211 551.979 872.185C552.613 871.399 553.012 870.136 553.143 868.436C553.213 867.816 553.244 866.379 553.244 864.131C553.244 861.877 553.213 860.431 553.143 859.821C553.012 858.113 552.613 856.855 551.979 856.064C551.164 855.048 550.148 854.545 548.859 854.545ZM548.859 878C546.435 878 544.337 877.004 542.671 875.04C541.613 873.8 540.929 872.264 540.653 870.467C540.484 869.343 540.397 867.264 540.397 864.131C540.397 860.983 540.484 858.915 540.653 857.793C540.929 855.988 541.613 854.452 542.671 853.217C544.337 851.248 546.435 850.253 548.859 850.253C551.337 850.253 553.44 851.248 555.109 853.217C556.153 854.452 556.825 855.988 557.083 857.793C557.26 858.879 557.34 861.012 557.34 864.131C557.34 867.251 557.26 869.376 557.083 870.467C556.825 872.259 556.153 873.8 555.109 875.04C553.44 877.004 551.337 878 548.859 878Z" fill="#636466"/>
<path d="M569.817 861.737C570.866 861.737 571.674 861.445 572.27 860.836C572.882 860.252 573.178 859.376 573.178 858.255C573.178 857.135 572.882 856.257 572.27 855.661C571.674 855.057 570.866 854.775 569.817 854.775H565.062V861.737H569.817ZM570.148 873.484C571.221 873.484 572.028 873.149 572.632 872.477C573.218 871.788 573.528 870.877 573.528 869.737C573.528 868.627 573.218 867.72 572.632 867.04C572.028 866.363 571.221 866.032 570.148 866.032H565.062V873.484H570.148ZM560.976 877.777V850.475H570.117C572.296 850.475 574.06 851.167 575.348 852.543C576.632 853.912 577.29 855.777 577.29 858.104C577.29 859.508 576.95 860.784 576.284 861.904C575.809 862.691 575.244 863.303 574.582 863.737C576.609 864.932 577.629 867.007 577.629 869.928C577.629 872.399 576.968 874.341 575.664 875.709C574.356 877.084 572.598 877.777 570.462 877.777H560.976Z" fill="#636466"/>
<path d="M588.9 854.545C587.619 854.545 586.611 855.048 585.788 856.064C585.157 856.859 584.761 858.113 584.629 859.813C584.553 860.431 584.531 861.877 584.531 864.131C584.531 866.379 584.553 867.824 584.629 868.431C584.761 870.136 585.157 871.399 585.788 872.185C586.611 873.211 587.619 873.704 588.9 873.704C590.197 873.704 591.205 873.211 592.009 872.185C592.655 871.399 593.048 870.136 593.195 868.436C593.244 867.824 593.277 866.379 593.277 864.131C593.277 861.877 593.244 860.431 593.195 859.821C593.048 858.113 592.655 856.855 592.009 856.064C591.205 855.048 590.197 854.545 588.9 854.545ZM588.9 878C586.465 878 584.376 877.004 582.707 875.04C581.66 873.8 580.965 872.264 580.695 870.467C580.523 869.343 580.427 867.269 580.427 864.131C580.427 860.983 580.523 858.915 580.695 857.793C580.965 855.988 581.66 854.452 582.707 853.217C584.376 851.248 586.465 850.253 588.9 850.253C591.373 850.253 593.479 851.248 595.14 853.217C596.195 854.452 596.864 855.988 597.113 857.793C597.299 858.879 597.381 861.012 597.381 864.131C597.381 867.245 597.299 869.376 597.113 870.467C596.864 872.264 596.195 873.8 595.14 875.04C593.479 877.004 591.373 878 588.9 878Z" fill="#636466"/>
<path d="M605.238 877.778V854.776H598.99V850.474H615.572V854.776H609.332V877.778H605.238Z" fill="#636466"/>
<path d="M624.867 850.474H628.952V877.778H624.867V850.474Z" fill="#636466"/>
<path d="M647.444 877.778L637.515 859.977V877.778H633.411V850.474H637.087L647.027 868.238V850.474H651.13V877.778H647.444Z" fill="#636466"/>
<path d="M663.509 873.484C665.061 873.484 666.228 872.936 667.091 871.821C667.572 871.17 667.903 870.132 668.072 868.725C668.171 867.79 668.217 866.18 668.217 863.938C668.217 861.742 668.171 860.201 668.072 859.342C667.903 858.058 667.572 857.084 667.091 856.433C666.228 855.314 665.061 854.776 663.509 854.776H659.673V873.484H663.509ZM655.588 877.778V850.474H663.851C666.428 850.474 668.485 851.357 669.968 853.1C671.091 854.412 671.807 856.128 672.103 858.201C672.26 859.264 672.329 861.196 672.329 863.938C672.329 866.761 672.26 868.745 672.103 869.86C671.807 872.064 671.091 873.845 669.968 875.154C668.485 876.897 666.428 877.778 663.851 877.778H655.588Z" fill="#636466"/>
<path d="M684.046 878C681.634 878 679.593 877.105 677.997 875.325C676.407 873.569 675.611 871.256 675.611 868.468V850.475H679.707V868.277C679.707 869.968 680.117 871.308 680.907 872.275C681.699 873.247 682.721 873.704 684.046 873.704C685.382 873.704 686.413 873.239 687.213 872.275C688.025 871.308 688.421 869.968 688.421 868.277V850.475H692.522V868.468C692.522 871.256 691.718 873.569 690.122 875.325C688.507 877.108 686.478 878 684.046 878Z" fill="#636466"/>
<path d="M702.994 878C699.535 878 696.762 876.783 694.742 874.368L694.557 874.151L697.281 870.983L697.538 871.28C698.901 872.893 700.77 873.704 703.07 873.704C704.461 873.704 705.551 873.372 706.301 872.728C707.041 872.075 707.418 871.171 707.418 869.968C707.418 868.855 707.137 868.001 706.606 867.417C706.155 866.931 705.379 866.584 704.325 866.4L701.642 865.957C699.697 865.613 698.189 864.864 697.158 863.715C696.007 862.444 695.418 860.644 695.418 858.403C695.418 855.976 696.133 854.003 697.554 852.507C698.955 851.008 700.915 850.253 703.325 850.253C706.249 850.253 708.691 851.311 710.606 853.389L710.799 853.612L708.163 856.668L707.898 856.379C706.751 855.089 705.179 854.433 703.226 854.433C702.013 854.433 701.117 854.784 700.431 855.497C699.743 856.201 699.431 857.109 699.431 858.255C699.431 859.209 699.682 859.968 700.215 860.513C700.737 861.072 701.525 861.447 702.554 861.632L705.13 862.075C707.059 862.417 708.549 863.111 709.541 864.163C710.83 865.483 711.475 867.403 711.475 869.855C711.475 872.356 710.685 874.361 709.114 875.817C707.549 877.269 705.51 878 702.994 878Z" fill="#636466"/>
<path d="M718.82 877.778V854.776H712.58V850.474H729.153V854.776H722.929V877.778H718.82Z" fill="#636466"/>
<path d="M740.463 862.482C741.542 862.482 742.39 862.154 743.018 861.474C743.646 860.805 743.987 859.854 743.987 858.638C743.987 857.436 743.646 856.476 743.018 855.788C742.39 855.105 741.542 854.776 740.463 854.776H735.698V862.482H740.463ZM744.226 877.778L739.45 866.556H735.698V877.778H731.611V850.474H740.739C742.933 850.474 744.734 851.244 746.073 852.749C747.411 854.256 748.073 856.222 748.073 858.589C748.073 860.469 747.643 862.068 746.769 863.36C745.969 864.541 744.927 865.38 743.679 865.854L748.966 877.778H744.226Z" fill="#636466"/>
<path d="M755.609 877.778V866.55L748.677 850.474H753.15L757.663 861.632L762.179 850.474H766.677L759.729 866.55V877.778H755.609Z" fill="#636466"/>
<path d="M785.369 868.357L782.38 858.02L779.293 868.357H785.369ZM788.069 877.777L786.514 872.433H778.082L776.525 877.777H772.158L780.664 850.475H783.929L792.432 877.777H788.069Z" fill="#636466"/>
<path d="M801.999 873.484C803.565 873.484 804.726 872.936 805.573 871.821C806.073 871.17 806.401 870.132 806.565 868.725C806.669 867.79 806.723 866.18 806.723 863.938C806.723 861.742 806.669 860.201 806.565 859.342C806.417 858.058 806.073 857.084 805.573 856.433C804.726 855.314 803.565 854.776 801.999 854.776H798.171V873.484H801.999ZM794.078 877.778V850.474H802.341C804.926 850.474 806.973 851.357 808.466 853.1C809.585 854.412 810.294 856.128 810.593 858.201C810.745 859.264 810.819 861.196 810.819 863.938C810.819 866.761 810.745 868.745 810.593 869.86C810.294 872.064 809.585 873.845 808.466 875.154C806.973 876.897 804.926 877.778 802.341 877.778H794.078Z" fill="#636466"/>
<path d="M819.168 877.778L811.551 850.474H815.791L820.759 868.908L825.723 850.474H830.043L822.345 877.778H819.168Z" fill="#636466"/>
<path d="M841.965 868.357L838.992 858.02L835.887 868.357H841.965ZM844.671 877.777L843.127 872.433H834.687L833.124 877.777H828.771L837.275 850.475H840.531L849.036 877.777H844.671Z" fill="#636466"/>
<path d="M864.708 877.778L854.773 859.977V877.778H850.664V850.474H854.356L864.281 868.238V850.474H868.391V877.778H864.708Z" fill="#636466"/>
<path d="M880.481 878C878.03 878 875.953 877.004 874.29 875.04C873.226 873.801 872.549 872.264 872.267 870.468C872.098 869.343 872.009 867.269 872.009 864.132C872.009 860.983 872.098 858.916 872.267 857.793C872.549 855.988 873.226 854.452 874.29 853.217C875.953 851.249 878.041 850.253 880.481 850.253C882.683 850.253 884.566 851 886.062 852.481C887.551 853.949 888.502 856.048 888.882 858.725L888.939 859.109H884.786L884.721 858.847C884.142 855.949 882.754 854.545 880.481 854.545C879.199 854.545 878.191 855.029 877.41 856.025C876.775 856.845 876.361 858.116 876.199 859.816C876.137 860.431 876.095 861.877 876.095 864.132C876.095 866.379 876.137 867.824 876.199 868.431C876.361 870.133 876.775 871.409 877.41 872.227C878.191 873.224 879.199 873.704 880.481 873.704C882.778 873.704 884.174 872.3 884.751 869.412L884.819 869.144H888.939L888.882 869.528C888.502 872.179 887.551 874.275 886.043 875.757C884.535 877.247 882.658 878 880.481 878Z" fill="#636466"/>
<path d="M892.018 877.778V850.474H907.148V854.776H896.111V861.885H905.518V866.138H896.111V873.484H907.148V877.778H892.018Z" fill="#636466"/>
<path d="M926.921 877.778V861.353L922.268 872.954H919.278L914.489 861.321V877.778H910.388V850.474H914.394L920.778 866.476L927.033 850.474H931.025V877.778H926.921Z" fill="#636466"/>
<path d="M935.441 877.778V850.474H950.587V854.776H939.545V861.885H948.96V866.138H939.545V873.484H950.587V877.778H935.441Z" fill="#636466"/>
<path d="M967.871 877.778L957.931 859.977V877.778H953.838V850.474H957.502L967.437 868.238V850.474H971.546V877.778H967.871Z" fill="#636466"/>
<path d="M980.229 877.778V854.776H973.991V850.474H990.557V854.776H984.333V877.778H980.229Z" fill="#636466"/>
</svg>
